# xmcd
#
# Track frame offsets:
#	150
#	29825
#	48125
#	72310
#	91230
#	106875
#	121646
#	140583
#	153392
#	172915
#	193026
#	207983
#
# Disc length: 3118 seconds
#
# Revision: 0
# Processed by: cddbd v1.5.2PL0 Copyright (c) Steve Scherf et al.
# Submitted via: EZCDAudioConverter 3.0.8.1
#
DISCID=a00c2c0c
DTITLE=Denge Roje 2
DYEAR=2007
DGENRE=Kurdish
TTITLE0=Brader - Cana Mın
TTITLE1=Mıste - Hewar
TTITLE2=Xenamir - Sterk
TTITLE3=Brader - Sebra Mın
TTITLE4=Cejno - Merdine
TTITLE5=Xemdar - Je Te Dıkım
TTITLE6=Kazo - Bo Çı Şeven Me
TTITLE7=Ehmed Xelil - Xezal Xezal
TTITLE8=Cewad Mervani - Evindari
TTITLE9=Beyto Can - Sevda
TTITLE10=Kadir ipek - Pısmamo
TTITLE11=Brader - Şemiye
EXTD=
EXTT0=
EXTT1=
EXTT2=
EXTT3=
EXTT4=
EXTT5=
EXTT6=
EXTT7=
EXTT8=
EXTT9=
EXTT10=
EXTT11=
PLAYORDER=
